<svg id="Layer_1" data-name="Layer 1" xmlns="http://www.w3.org/2000/svg" viewBox="0 0 800 800"><title>blacklist</title><polygon points="514.31 179.35 328.11 287.02 328.11 177.53 383.86 238.66 433.87 209.74 329.23 95 285.69 120.18 285.69 368.57 514.31 236.36 514.31 179.35"/><polygon points="514.31 262.81 285.69 395.02 285.69 452.03 471.89 344.36 471.89 536.41 514.31 512.21 514.31 262.81"/><path d="M100.53,621.61H97.34a12,12,0,0,0,12-12v-7.66a12,12,0,0,0-12-12H30.41v37H89a4.24,4.24,0,0,1,4.24,4.25v5.3A4.24,4.24,0,0,1,89,640.7H30.41v14.14h70.12a12,12,0,0,0,12-12v-9.19A12,12,0,0,0,100.53,621.61ZM93.22,612A4.24,4.24,0,0,1,89,616.19H51.68a3.6,3.6,0,0,1-3.6-3.6V606a3.6,3.6,0,0,1,3.6-3.59H89a4.24,4.24,0,0,1,4.24,4.24Z"/><polygon points="769.59 589.56 741.37 589.56 723.69 589.56 695.47 589.56 695.47 607.23 723.69 607.23 723.69 654.49 741.37 654.49 741.37 607.23 769.59 607.23 769.59 589.56"/><rect x="568.49" y="589.91" width="17.68" height="64.93"/><polygon points="473.56 589.2 447.58 589.2 422.13 613.3 422.13 589.2 404.45 589.2 404.45 654.13 422.13 654.13 422.13 630.04 447.58 654.13 473.56 654.13 439.27 621.67 473.56 589.2"/><path d="M278.12,654.13H295.8L262.92,589.2h-22L208,654.13h17.68l5.67-11.19h41.1ZM238,629.74l13.87-27.39,13.87,27.39Z"/><polygon points="146.72 637.16 146.72 589.91 129.04 589.91 129.04 654.84 146.72 654.84 191.74 654.84 191.74 637.16 146.72 637.16"/><polygon points="506.38 637.16 506.38 589.91 488.71 589.91 488.71 654.84 506.38 654.84 551.4 654.84 551.4 637.16 506.38 637.16"/><path d="M386.65,613.07V605a15.79,15.79,0,0,0-15.79-15.79H324.08a19.21,19.21,0,0,0-19.21,19.21v26.52a19.21,19.21,0,0,0,19.21,19.2h46.78a15.79,15.79,0,0,0,15.79-15.79v-8.07H367.09v6.36a2.54,2.54,0,0,1-2.53,2.54H333a8.49,8.49,0,0,1-8.48-8.49v-18a8.48,8.48,0,0,1,8.48-8.48h31.53a2.53,2.53,0,0,1,2.53,2.53v6.37Z"/><path d="M681,609.71v-6.6a13.2,13.2,0,0,0-13.2-13.2H616.92a13.19,13.19,0,0,0-13.19,13.2V619a7.82,7.82,0,0,0,7.83,7.83h46.49a5.31,5.31,0,0,1,5.31,5.31v3.77a5.3,5.3,0,0,1-5.31,5.3H627.94a4.53,4.53,0,0,1-4.53-4.54v-3.35H603.73v7.66a13.18,13.18,0,0,0,13.19,13.19h50.91A13.19,13.19,0,0,0,681,640.94V624a7.84,7.84,0,0,0-7.83-7.84H626.71a5.31,5.31,0,0,1-5.31-5.3v-3.78a5.31,5.31,0,0,1,5.31-5.3h30.1a4.54,4.54,0,0,1,4.54,4.54v3.36Z"/><path d="M217.22,704.69h-3.53V674.57h3.53Z"/><path d="M236.47,674.57h4.17l6.72,23.08-.3.54V674.57h3.26v30.1h-4.19L239.43,682l.3-.54v23.26h-3.26Z"/><path d="M268.33,674.57h13.25V680H268.33Zm4.92,2.47h3.41v27.65h-3.41Z"/><path d="M299.1,674.57h3.4v30.12h-3.4Zm1.23,0H311.2V680H300.33Zm0,12.43h9.51v5.47h-9.51Zm0,12.22H311.2v5.47H300.33Z"/><path d="M329.84,674.55h3.4v30.14h-3.4Zm1.35,12.55h6.29a1.2,1.2,0,0,0,.92-.43,2.88,2.88,0,0,0,.61-1.24,7.68,7.68,0,0,0,0-3.73,3,3,0,0,0-.62-1.25,1.2,1.2,0,0,0-.93-.43h-6.29v-5.47h6.56a3.62,3.62,0,0,1,2.63,1.12,7.45,7.45,0,0,1,1.75,3.16,18.39,18.39,0,0,1,0,9.47,7.48,7.48,0,0,1-1.76,3.16,3.64,3.64,0,0,1-2.62,1.11h-6.56Zm3.8,4.54,3.65-.95,4.87,14h-4.13Z"/><path d="M362,674.57h4.16l6.73,23.08-.3.54V674.57h3.25v30.1h-4.19L364.92,682l.29-.54v23.26H362Z"/><path d="M400.23,674.57h2.16l6.91,30.12h-3.66l-4.33-20.57L397,704.69h-3.67Zm-3.59,19.82h9.51v5.47h-9.51Z"/><path d="M424.08,674.57h13.25V680H424.08ZM429,677h3.4v27.65H429Z"/><path d="M458.13,704.69H454.6V674.57h3.53Z"/><path d="M480.15,703.62a8.92,8.92,0,0,1-2.32-3.89,19,19,0,0,1-.82-5.83v-8.54a19.08,19.08,0,0,1,.82-5.83,9,9,0,0,1,2.32-3.89,5,5,0,0,1,6.92,0,8.88,8.88,0,0,1,2.32,3.89,18.78,18.78,0,0,1,.82,5.83v8.54a18.74,18.74,0,0,1-.82,5.83,8.83,8.83,0,0,1-2.32,3.89,5,5,0,0,1-6.92,0Zm5.08-5a4.19,4.19,0,0,0,1.07-1.85,9,9,0,0,0,.38-2.78v-8.82a9,9,0,0,0-.38-2.78,4.19,4.19,0,0,0-1.07-1.85,2.29,2.29,0,0,0-1.62-.65,2.25,2.25,0,0,0-1.61.65,4.2,4.2,0,0,0-1.08,1.85,9.34,9.34,0,0,0-.38,2.78V694a9.34,9.34,0,0,0,.38,2.78,4.2,4.2,0,0,0,1.08,1.85,2.26,2.26,0,0,0,1.61.66A2.3,2.3,0,0,0,485.23,698.67Z"/><path d="M509.1,674.57h4.16L520,697.65l-.29.54V674.57h3.25v30.1h-4.19L512.05,682l.3-.54v23.26H509.1Z"/><path d="M547.37,674.57h2.16l6.91,30.12h-3.66l-4.33-20.57-4.32,20.57h-3.67Zm-3.59,19.82h9.51v5.47h-9.51Z"/><path d="M574.21,674.57h3.4v30.12h-3.4Zm1.51,24.65h10.59v5.47H575.72Z"/></svg>